<?xml version="1.0" encoding="utf-8"?>
<!-- Generator: Adobe Illustrator 16.0.4, SVG Export Plug-In . SVG Version: 6.00 Build 0)  -->
<!DOCTYPE svg PUBLIC "-//W3C//DTD SVG 1.1//EN" "http://www.w3.org/Graphics/SVG/1.1/DTD/svg11.dtd">
<svg version="1.1" id="Ebene_1" xmlns="http://www.w3.org/2000/svg" xmlns:xlink="http://www.w3.org/1999/xlink" x="0px" y="0px"
	 width="1280px" height="800px" viewBox="0 0 1280 800" enable-background="new 0 0 1280 800" xml:space="preserve">
<g>
	<linearGradient id="SVGID_1_" gradientUnits="userSpaceOnUse" x1="1085.4375" y1="342.0498" x2="1085.4375" y2="458.7837">
		<stop  offset="0.0013" style="stop-color:#F2F2F2;stop-opacity:0.8"/>
		<stop  offset="1" style="stop-color:#5E607A"/>
	</linearGradient>
	<path fill-rule="evenodd" clip-rule="evenodd" fill="url(#SVGID_1_)" d="M1141.479,458.783c-4.037-0.009-8.077-0.047-12.115-0.003
		c-0.869,0.01-1.236-0.294-1.559-1.067c-3.953-9.496-7.959-18.97-11.902-28.47c-0.381-0.92-0.828-1.232-1.827-1.229
		c-13.919,0.035-27.837,0.023-41.754,0.023c-0.438,0-0.876,0-1.508,0c0.354-0.965,0.655-1.836,0.991-2.695
		c0.914-2.342,1.88-4.664,2.746-7.023c0.332-0.903,0.833-1.146,1.77-1.145c10.958,0.035,21.917,0.022,32.875,0.022
		c0.5,0,1.003,0,1.58,0c-8.395-20.719-16.717-41.26-25.117-61.997c-0.289,0.408-0.631,0.742-0.799,1.148
		c-6.744,16.239-13.471,32.485-20.203,48.729c-1.466,3.535-2.985,7.049-4.415,10.6c-1.423,3.531-2.688,7.126-4.151,10.64
		c-3.244,7.791-6.573,15.546-9.855,23.32c-1.147,2.72-2.256,5.456-3.379,8.187c-0.213,0.518-0.369,0.964-1.133,0.955
		c-4.037-0.045-8.076-0.021-12.325-0.021c0.62-1.505,1.182-2.916,1.784-4.309c4.765-11.017,9.541-22.027,14.305-33.044
		c7.297-16.871,14.589-33.745,21.881-50.618c3.988-9.225,7.985-18.444,11.939-27.683c0.343-0.797,0.77-1.056,1.609-1.044
		c3.077,0.043,6.158,0.062,9.236-0.009c1.004-0.024,1.459,0.336,1.84,1.227c5.979,14.011,11.985,28.01,17.994,42.007
		c9.17,21.358,18.35,42.713,27.523,64.068c1.133,2.639,2.27,5.276,3.415,7.911c0.155,0.359,0.368,0.693,0.554,1.04
		C1141.479,458.464,1141.479,458.623,1141.479,458.783z"/>
	<linearGradient id="SVGID_2_" gradientUnits="userSpaceOnUse" x1="187.2974" y1="339.0034" x2="187.2974" y2="461.7065">
		<stop  offset="0.0013" style="stop-color:#F2F2F2;stop-opacity:0.8"/>
		<stop  offset="1" style="stop-color:#5E607A"/>
	</linearGradient>
	<path fill-rule="evenodd" clip-rule="evenodd" fill="url(#SVGID_2_)" d="M138.521,395.903c0.325-2.521,0.559-5.059,0.997-7.561
		c1.943-11.106,6.527-20.989,14.044-29.425c9.417-10.572,21.262-16.828,35.179-19.044c13.818-2.2,27.056-0.311,39.357,6.599
		c2.692,1.512,5.093,3.551,7.591,5.395c0.255,0.188,0.466,0.793,0.356,1.066c-1.604,3.994-3.267,7.966-4.945,12.016
		c-1.094-1.275-2.098-2.493-3.15-3.668c-3.142-3.506-6.999-5.998-11.262-7.922c-6.229-2.811-12.762-4.007-19.572-3.703
		c-12.447,0.556-23.248,4.998-32.004,13.951c-7.164,7.326-11.297,16.254-13.099,26.271c-2.062,11.452-0.985,22.62,3.843,33.241
		c6.512,14.327,17.449,23.538,32.895,26.901c10.798,2.353,21.354,1.261,31.334-3.785c5.23-2.646,9.426-6.508,12.824-11.262
		c0.286-0.399,0.617-0.768,0.928-1.149c0.105,0.045,0.212,0.09,0.318,0.135c-0.07,0.335-0.096,0.689-0.225,1.001
		c-2.735,6.635-5.476,13.269-8.253,19.886c-0.179,0.427-0.601,0.85-1.018,1.062c-6.335,3.228-13.059,5.053-20.146,5.587
		c-8.527,0.642-16.901-0.151-25.062-2.751c-8.092-2.577-15.393-6.595-21.661-12.362c-11.392-10.481-17.345-23.641-18.993-38.891
		c-0.098-0.902-0.186-1.806-0.276-2.708C138.521,401.823,138.521,398.863,138.521,395.903z"/>
	<linearGradient id="SVGID_3_" gradientUnits="userSpaceOnUse" x1="892.3213" y1="342.0576" x2="892.3213" y2="458.772">
		<stop  offset="0.0013" style="stop-color:#F2F2F2;stop-opacity:0.8"/>
		<stop  offset="1" style="stop-color:#5E607A"/>
	</linearGradient>
	<path fill-rule="evenodd" clip-rule="evenodd" fill="url(#SVGID_3_)" d="M927.914,441.251c0-33.013,0-66.025,0-99.099
		c4.023,0,7.92,0,11.879,0c0,38.86,0,77.645,0,116.531c-0.342,0.024-0.685,0.07-1.028,0.07c-4.28,0.005-8.562-0.012-12.84,0.018
		c-0.708,0.005-1.146-0.181-1.562-0.799c-7.253-10.764-14.537-21.507-21.81-32.258c-11.12-16.44-22.235-32.886-33.358-49.325
		c-3.894-5.754-7.803-11.497-11.708-17.244c-0.15-0.224-0.315-0.438-0.717-0.615c0,33.342,0,66.684,0,100.126
		c-4.067,0-7.955,0-11.92,0c0-38.802,0-77.581,0-116.499c0.394-0.027,0.775-0.076,1.156-0.077c4.241-0.006,8.48,0.018,12.721-0.022
		c0.786-0.007,1.22,0.285,1.644,0.908c5.276,7.757,10.581,15.496,15.877,23.242c10.769,15.757,21.536,31.514,32.302,47.271
		c6.128,8.967,12.248,17.937,18.376,26.903c0.22,0.322,0.463,0.629,0.694,0.943C927.717,441.301,927.814,441.276,927.914,441.251z"
		/>
	<linearGradient id="SVGID_4_" gradientUnits="userSpaceOnUse" x1="383.877" y1="342.0542" x2="383.877" y2="458.7612">
		<stop  offset="0.0013" style="stop-color:#F2F2F2;stop-opacity:0.8"/>
		<stop  offset="1" style="stop-color:#5E607A"/>
	</linearGradient>
	<path fill-rule="evenodd" clip-rule="evenodd" fill="url(#SVGID_4_)" d="M439.929,458.757c-4.302,0-8.42,0.021-12.538-0.036
		c-0.365-0.006-0.904-0.443-1.06-0.809c-2.827-6.642-5.608-13.303-8.398-19.961c-1.279-3.053-2.597-6.09-3.81-9.168
		c-0.333-0.848-0.895-0.746-1.521-0.746c-14.077,0-28.155,0-42.234,0c-0.477,0-0.951,0-1.605,0c0.805-2.037,1.566-3.955,2.322-5.876
		c0.494-1.262,1.018-2.515,1.456-3.798c0.296-0.876,0.757-1.196,1.734-1.193c11.158,0.042,22.315,0.026,33.476,0.026
		c0.462,0,0.923,0,1.567,0c-8.591-20.785-17.093-41.358-25.685-62.146c-14.35,34.656-28.624,69.13-42.917,103.65
		c-4.237,0-8.466,0-12.891,0c0.453-1.104,0.867-2.151,1.312-3.186c8.247-19.069,16.499-38.137,24.744-57.206
		c6.457-14.933,12.906-29.867,19.359-44.802c1.503-3.479,3.019-6.951,4.489-10.443c0.301-0.716,0.662-1.022,1.486-1.009
		c3.2,0.055,6.399,0.055,9.599,0c0.831-0.014,1.18,0.305,1.482,1.02c7.091,16.573,14.198,33.139,21.311,49.703
		c8.919,20.771,17.844,41.541,26.768,62.312C438.875,456.254,439.363,457.425,439.929,458.757z"/>
	<linearGradient id="SVGID_5_" gradientUnits="userSpaceOnUse" x1="560.9399" y1="341.9839" x2="560.9399" y2="458.7778">
		<stop  offset="0.0013" style="stop-color:#F2F2F2;stop-opacity:0.8"/>
		<stop  offset="1" style="stop-color:#5E607A"/>
	</linearGradient>
	<path fill-rule="evenodd" clip-rule="evenodd" fill="url(#SVGID_5_)" d="M524.202,351.929c0.889-2.257,1.751-4.479,2.639-6.69
		c0.414-1.03,0.613-2.43,1.389-2.952c0.782-0.527,2.155-0.204,3.272-0.205c8.316-0.009,16.637-0.124,24.953,0.031
		c7.381,0.138,14.639,1.191,21.394,4.44c8.908,4.284,13.946,11.393,15.196,21.177c0.671,5.243,0.566,10.467-1.293,15.475
		c-3.689,9.931-10.988,15.896-21.053,18.654c-2.029,0.556-4.139,0.823-6.211,1.229c-0.227,0.045-0.444,0.124-0.82,0.23
		c11.353,18.483,22.637,36.857,34.01,55.375c-0.483,0.026-0.819,0.062-1.156,0.062c-4.078,0.003-8.158-0.022-12.236,0.022
		c-0.855,0.01-1.325-0.225-1.778-0.993c-8.92-15.122-17.878-30.222-26.827-45.325c-1.445-2.438-2.937-4.849-4.305-7.327
		c-0.47-0.847-1.029-1.024-1.906-1.019c-4.879,0.035-9.757,0.018-14.637,0.018c-0.473,0-0.945,0-1.612,0
		c0.975-2.501,1.871-4.833,2.79-7.156c1.211-3.061,1.22-3.059,4.496-3.059c4.438,0,8.881,0.097,13.317-0.023
		c5.773-0.157,11.455-0.926,16.765-3.415c6.506-3.049,10.226-8.045,10.77-15.31c0.412-5.494-0.543-10.581-4.261-14.865
		c-3.138-3.613-7.254-5.65-11.831-6.555c-3.814-0.754-7.723-1.268-11.605-1.396c-6.672-0.222-13.356-0.024-20.033-0.077
		C530.523,352.25,527.423,352.053,524.202,351.929z"/>
	<linearGradient id="SVGID_6_" gradientUnits="userSpaceOnUse" x1="715.2773" y1="390.9971" x2="715.2773" y2="458.6929">
		<stop  offset="0.0013" style="stop-color:#F2F2F2;stop-opacity:0.8"/>
		<stop  offset="1" style="stop-color:#5E607A"/>
	</linearGradient>
	<path fill-rule="evenodd" clip-rule="evenodd" fill="url(#SVGID_6_)" d="M721.145,458.692c-3.938,0-7.764,0-11.732,0
		c0-0.571,0-1.079,0-1.587c0-11.677-0.015-23.353,0.027-35.029c0.003-1.044,0.22-2.146,0.599-3.12
		c3.56-9.139,7.178-18.255,10.78-27.376c0.057-0.14,0.146-0.265,0.326-0.583C721.145,413.673,721.145,436.143,721.145,458.692z"/>
	<linearGradient id="SVGID_7_" gradientUnits="userSpaceOnUse" x1="715.4229" y1="342.1816" x2="715.4229" y2="382.4053">
		<stop  offset="0.0013" style="stop-color:#F2F2F2;stop-opacity:0.8"/>
		<stop  offset="1" style="stop-color:#5E607A"/>
	</linearGradient>
	<path fill-rule="evenodd" clip-rule="evenodd" fill="url(#SVGID_7_)" d="M709.486,382.359c0-13.357,0-26.715,0-40.178
		c3.88,0,7.727,0,11.66,0c0.024,0.356,0.062,0.704,0.064,1.052c0.009,0.999-0.082,2.007,0.016,2.997
		c0.563,5.627-0.706,10.818-3.076,15.941c-2.959,6.396-5.476,12.998-8.186,19.511c-0.102,0.244-0.218,0.481-0.328,0.723
		C709.587,382.39,709.537,382.375,709.486,382.359z"/>
</g>
</svg>
