<?xml version="1.0" encoding="utf-8"?>
<!-- Generator: Adobe Illustrator 16.0.4, SVG Export Plug-In . SVG Version: 6.00 Build 0)  -->
<!DOCTYPE svg PUBLIC "-//W3C//DTD SVG 1.1//EN" "http://www.w3.org/Graphics/SVG/1.1/DTD/svg11.dtd">
<svg version="1.1" id="Ebene_1" xmlns="http://www.w3.org/2000/svg" xmlns:xlink="http://www.w3.org/1999/xlink" x="0px" y="0px"
	 width="100px" height="12.234px" viewBox="105.464 790.5 100 12.234" enable-background="new 105.464 790.5 100 12.234"
	 xml:space="preserve">
<g>
	
		<linearGradient id="SVGID_1_" gradientUnits="userSpaceOnUse" x1="-44.1226" y1="104.1958" x2="-44.1226" y2="92.5571" gradientTransform="matrix(1 0 0 -1 244 895)">
		<stop  offset="0" style="stop-color:#F2F2F2"/>
		<stop  offset="1" style="stop-color:#BCDEFA"/>
	</linearGradient>
	<path fill="url(#SVGID_1_)" d="M205.464,802.442c-0.403-0.001-0.805-0.005-1.208,0c-0.086,0.001-0.123-0.029-0.155-0.106
		c-0.394-0.947-0.793-1.892-1.187-2.838c-0.038-0.093-0.083-0.123-0.182-0.123c-1.388,0.004-2.775,0.003-4.164,0.003
		c-0.043,0-0.087,0-0.15,0c0.036-0.098,0.065-0.184,0.099-0.27c0.091-0.233,0.187-0.465,0.273-0.7
		c0.034-0.09,0.083-0.114,0.177-0.114c1.092,0.004,2.186,0.003,3.278,0.003c0.05,0,0.1,0,0.157,0
		c-0.837-2.066-1.667-4.115-2.504-6.183c-0.028,0.041-0.062,0.075-0.079,0.114c-0.672,1.62-1.343,3.24-2.015,4.859
		c-0.146,0.353-0.298,0.702-0.44,1.057c-0.142,0.353-0.268,0.711-0.414,1.062c-0.324,0.777-0.655,1.549-0.982,2.324
		c-0.114,0.271-0.225,0.545-0.337,0.816c-0.021,0.052-0.037,0.097-0.113,0.096c-0.402-0.005-0.805-0.002-1.229-0.002
		c0.062-0.15,0.118-0.291,0.178-0.43c0.475-1.1,0.951-2.196,1.426-3.295c0.728-1.683,1.455-3.364,2.182-5.047
		c0.398-0.92,0.796-1.839,1.19-2.761c0.034-0.078,0.077-0.104,0.161-0.104c0.307,0.004,0.614,0.006,0.92-0.001
		c0.1-0.002,0.146,0.034,0.184,0.122c0.596,1.397,1.195,2.793,1.794,4.188c0.914,2.13,1.83,4.259,2.744,6.388
		c0.113,0.264,0.227,0.526,0.341,0.789c0.016,0.036,0.037,0.069,0.055,0.104C205.464,802.41,205.464,802.427,205.464,802.442z"/>
	
		<linearGradient id="SVGID_2_" gradientUnits="userSpaceOnUse" x1="-133.6719" y1="104.4995" x2="-133.6719" y2="92.2656" gradientTransform="matrix(1 0 0 -1 244 895)">
		<stop  offset="0" style="stop-color:#F2F2F2"/>
		<stop  offset="1" style="stop-color:#BCDEFA"/>
	</linearGradient>
	<path fill="url(#SVGID_2_)" d="M105.464,796.173c0.033-0.251,0.056-0.505,0.1-0.754c0.193-1.107,0.651-2.093,1.4-2.933
		c0.939-1.055,2.12-1.679,3.508-1.899c1.378-0.22,2.697-0.031,3.924,0.658c0.269,0.15,0.508,0.354,0.757,0.537
		c0.025,0.019,0.047,0.08,0.036,0.107c-0.16,0.397-0.326,0.793-0.493,1.197c-0.109-0.127-0.209-0.249-0.314-0.365
		c-0.313-0.351-0.698-0.599-1.123-0.791c-0.622-0.28-1.272-0.398-1.952-0.368c-1.241,0.056-2.318,0.498-3.191,1.392
		c-0.714,0.729-1.126,1.62-1.306,2.618c-0.206,1.142-0.098,2.256,0.383,3.314c0.649,1.429,1.74,2.347,3.28,2.683
		c1.077,0.233,2.129,0.125,3.124-0.378c0.521-0.264,0.94-0.648,1.279-1.123c0.028-0.04,0.061-0.076,0.092-0.114
		c0.011,0.005,0.021,0.009,0.032,0.014c-0.007,0.033-0.009,0.068-0.022,0.1c-0.273,0.662-0.546,1.323-0.823,1.983
		c-0.018,0.042-0.06,0.084-0.102,0.105c-0.631,0.322-1.302,0.504-2.009,0.557c-0.85,0.064-1.685-0.016-2.499-0.274
		c-0.807-0.257-1.535-0.656-2.16-1.232c-1.136-1.045-1.729-2.357-1.893-3.878c-0.01-0.09-0.019-0.18-0.028-0.27
		C105.464,796.764,105.464,796.469,105.464,796.173z"/>
	<linearGradient id="SVGID_3_" gradientUnits="userSpaceOnUse" x1="180.6226" y1="790.8047" x2="180.6226" y2="802.4414">
		<stop  offset="0" style="stop-color:#F2F2F2"/>
		<stop  offset="1" style="stop-color:#BCDEFA"/>
	</linearGradient>
	<path fill="url(#SVGID_3_)" d="M184.171,800.694c0-3.291,0-6.582,0-9.88c0.401,0,0.79,0,1.185,0c0,3.874,0,7.741,0,11.618
		c-0.034,0.002-0.068,0.007-0.103,0.007c-0.426,0.001-0.853-0.001-1.28,0.002c-0.07,0.001-0.114-0.019-0.156-0.079
		c-0.723-1.073-1.45-2.145-2.174-3.217c-1.109-1.64-2.217-3.279-3.326-4.918c-0.389-0.573-0.778-1.146-1.167-1.719
		c-0.015-0.022-0.032-0.044-0.071-0.062c0,3.324,0,6.647,0,9.982c-0.406,0-0.793,0-1.188,0c0-3.868,0-7.735,0-11.615
		c0.039-0.003,0.077-0.008,0.115-0.008c0.423,0,0.846,0.002,1.269-0.002c0.079-0.001,0.122,0.028,0.164,0.09
		c0.526,0.773,1.055,1.546,1.583,2.318c1.074,1.57,2.147,3.142,3.221,4.713c0.611,0.894,1.221,1.788,1.832,2.682
		c0.022,0.032,0.046,0.063,0.069,0.095C184.151,800.7,184.161,800.697,184.171,800.694z"/>
	
		<linearGradient id="SVGID_4_" gradientUnits="userSpaceOnUse" x1="-114.0718" y1="104.1948" x2="-114.0718" y2="92.5591" gradientTransform="matrix(1 0 0 -1 244 895)">
		<stop  offset="0" style="stop-color:#F2F2F2"/>
		<stop  offset="1" style="stop-color:#BCDEFA"/>
	</linearGradient>
	<path fill="url(#SVGID_4_)" d="M135.516,802.44c-0.429,0-0.839,0.002-1.25-0.004c-0.037-0.001-0.09-0.045-0.105-0.08
		c-0.282-0.663-0.559-1.326-0.838-1.991c-0.127-0.304-0.258-0.606-0.379-0.914c-0.033-0.084-0.089-0.073-0.152-0.073
		c-1.403,0-2.807,0-4.21,0c-0.048,0-0.095,0-0.161,0c0.081-0.204,0.156-0.396,0.232-0.586c0.049-0.127,0.101-0.252,0.145-0.379
		c0.029-0.087,0.076-0.119,0.172-0.119c1.113,0.004,2.226,0.003,3.338,0.003c0.046,0,0.092,0,0.156,0
		c-0.857-2.072-1.704-4.125-2.561-6.197c-1.431,3.456-2.854,6.893-4.279,10.335c-0.422,0-0.844,0-1.285,0
		c0.045-0.11,0.086-0.214,0.131-0.318c0.822-1.9,1.645-3.802,2.467-5.703c0.644-1.489,1.287-2.979,1.93-4.468
		c0.15-0.346,0.301-0.692,0.448-1.041c0.029-0.07,0.066-0.102,0.148-0.1c0.319,0.005,0.638,0.005,0.957,0
		c0.083-0.002,0.118,0.03,0.147,0.101c0.708,1.653,1.416,3.305,2.125,4.956c0.89,2.071,1.779,4.142,2.669,6.214
		C135.411,802.19,135.46,802.308,135.516,802.44z"/>
	
		<linearGradient id="SVGID_5_" gradientUnits="userSpaceOnUse" x1="-96.418" y1="104.2021" x2="-96.418" y2="92.5571" gradientTransform="matrix(1 0 0 -1 244 895)">
		<stop  offset="0" style="stop-color:#F2F2F2"/>
		<stop  offset="1" style="stop-color:#BCDEFA"/>
	</linearGradient>
	<path fill="url(#SVGID_5_)" d="M143.918,791.788c0.089-0.225,0.175-0.446,0.263-0.666c0.042-0.103,0.061-0.243,0.139-0.295
		c0.078-0.053,0.215-0.02,0.326-0.021c0.83-0.001,1.659-0.012,2.488,0.004c0.736,0.014,1.46,0.118,2.133,0.442
		c0.888,0.427,1.39,1.136,1.515,2.111c0.067,0.522,0.057,1.044-0.129,1.543c-0.368,0.99-1.096,1.585-2.099,1.859
		c-0.202,0.056-0.413,0.083-0.619,0.123c-0.023,0.004-0.044,0.012-0.082,0.022c1.132,1.844,2.257,3.676,3.391,5.521
		c-0.048,0.003-0.082,0.006-0.115,0.006c-0.407,0.001-0.813-0.002-1.22,0.003c-0.085,0.001-0.132-0.023-0.177-0.099
		c-0.89-1.508-1.783-3.014-2.675-4.52c-0.144-0.243-0.293-0.484-0.429-0.73c-0.046-0.085-0.102-0.102-0.19-0.102
		c-0.486,0.004-0.973,0.002-1.459,0.002c-0.047,0-0.094,0-0.161,0c0.097-0.25,0.187-0.482,0.278-0.715
		c0.121-0.305,0.122-0.305,0.448-0.305c0.442,0,0.885,0.01,1.328-0.002c0.576-0.016,1.143-0.092,1.672-0.34
		c0.648-0.305,1.02-0.803,1.074-1.527c0.041-0.547-0.054-1.055-0.425-1.481c-0.313-0.36-0.723-0.563-1.18-0.654
		c-0.38-0.074-0.77-0.126-1.157-0.139c-0.665-0.022-1.332-0.003-1.997-0.008C144.549,791.82,144.24,791.801,143.918,791.788z"/>
	
		<linearGradient id="SVGID_6_" gradientUnits="userSpaceOnUse" x1="-81.0293" y1="99.3159" x2="-81.0293" y2="92.5659" gradientTransform="matrix(1 0 0 -1 244 895)">
		<stop  offset="0" style="stop-color:#F2F2F2"/>
		<stop  offset="1" style="stop-color:#BCDEFA"/>
	</linearGradient>
	<path fill="url(#SVGID_6_)" d="M163.555,802.434c-0.393,0-0.774,0-1.17,0c0-0.057,0-0.107,0-0.158c0-1.164-0.001-2.328,0.002-3.492
		c0-0.104,0.022-0.215,0.06-0.312c0.355-0.911,0.715-1.819,1.075-2.729c0.005-0.014,0.015-0.026,0.033-0.059
		C163.555,797.944,163.555,800.186,163.555,802.434z"/>
	
		<linearGradient id="SVGID_7_" gradientUnits="userSpaceOnUse" x1="-81.0151" y1="104.1821" x2="-81.0151" y2="100.1724" gradientTransform="matrix(1 0 0 -1 244 895)">
		<stop  offset="0" style="stop-color:#F2F2F2"/>
		<stop  offset="1" style="stop-color:#BCDEFA"/>
	</linearGradient>
	<path fill="url(#SVGID_7_)" d="M162.393,794.822c0-1.331,0-2.663,0-4.005c0.387,0,0.771,0,1.163,0
		c0.002,0.035,0.006,0.069,0.006,0.104c0.001,0.1-0.008,0.2,0.001,0.299c0.056,0.561-0.07,1.078-0.307,1.59
		c-0.295,0.637-0.546,1.296-0.816,1.945c-0.01,0.023-0.022,0.047-0.033,0.071C162.402,794.826,162.397,794.824,162.393,794.822z"/>
</g>
</svg>
