<?xml version="1.0" encoding="utf-8"?>
<!-- Generator: Adobe Illustrator 16.0.4, SVG Export Plug-In . SVG Version: 6.00 Build 0)  -->
<!DOCTYPE svg PUBLIC "-//W3C//DTD SVG 1.1//EN" "http://www.w3.org/Graphics/SVG/1.1/DTD/svg11.dtd">
<svg version="1.1" id="Ebene_1" xmlns="http://www.w3.org/2000/svg" xmlns:xlink="http://www.w3.org/1999/xlink" x="0px" y="0px"
	 width="1280px" height="800px" viewBox="0 0 1280 800" enable-background="new 0 0 1280 800" xml:space="preserve">
<g>
	<linearGradient id="SVGID_1_" gradientUnits="userSpaceOnUse" x1="1085.4385" y1="342.0498" x2="1085.4385" y2="458.7837">
		<stop  offset="0.0013" style="stop-color:#2E3192;stop-opacity:0.8"/>
		<stop  offset="0.9989" style="stop-color:#1B1464"/>
	</linearGradient>
	<path fill-rule="evenodd" clip-rule="evenodd" fill="url(#SVGID_1_)" d="M1141.479,458.783c-4.038-0.009-8.078-0.047-12.116-0.003
		c-0.869,0.01-1.236-0.294-1.559-1.067c-3.953-9.496-7.958-18.97-11.901-28.47c-0.382-0.92-0.829-1.232-1.828-1.229
		c-13.918,0.035-27.836,0.023-41.754,0.023c-0.438,0-0.876,0-1.508,0c0.354-0.965,0.656-1.836,0.991-2.695
		c0.914-2.342,1.88-4.664,2.746-7.023c0.332-0.903,0.833-1.146,1.77-1.145c10.958,0.035,21.917,0.022,32.875,0.022
		c0.501,0,1.003,0,1.581,0c-8.395-20.719-16.717-41.26-25.118-61.997c-0.289,0.408-0.63,0.742-0.799,1.148
		c-6.744,16.239-13.47,32.485-20.203,48.729c-1.466,3.535-2.985,7.049-4.415,10.6c-1.422,3.531-2.688,7.126-4.151,10.64
		c-3.243,7.791-6.573,15.546-9.854,23.32c-1.148,2.72-2.256,5.456-3.379,8.187c-0.213,0.518-0.369,0.964-1.133,0.955
		c-4.038-0.045-8.077-0.021-12.326-0.021c0.621-1.505,1.182-2.916,1.784-4.309c4.765-11.017,9.541-22.027,14.306-33.044
		c7.297-16.871,14.588-33.745,21.881-50.618c3.987-9.225,7.984-18.444,11.939-27.683c0.342-0.797,0.77-1.056,1.607-1.044
		c3.078,0.043,6.159,0.062,9.237-0.009c1.005-0.024,1.46,0.336,1.84,1.227c5.979,14.011,11.985,28.01,17.995,42.007
		c9.17,21.358,18.348,42.713,27.522,64.068c1.134,2.639,2.271,5.276,3.415,7.911c0.156,0.359,0.369,0.693,0.555,1.04
		C1141.479,458.464,1141.479,458.623,1141.479,458.783z"/>
	<linearGradient id="SVGID_2_" gradientUnits="userSpaceOnUse" x1="187.2979" y1="339.0034" x2="187.2979" y2="461.7065">
		<stop  offset="0.0013" style="stop-color:#2E3192;stop-opacity:0.8"/>
		<stop  offset="0.9989" style="stop-color:#1B1464"/>
	</linearGradient>
	<path fill-rule="evenodd" clip-rule="evenodd" fill="url(#SVGID_2_)" d="M138.521,395.903c0.326-2.521,0.559-5.059,0.997-7.561
		c1.944-11.106,6.528-20.989,14.044-29.425c9.418-10.572,21.262-16.828,35.18-19.044c13.817-2.2,27.055-0.311,39.357,6.599
		c2.691,1.512,5.092,3.551,7.59,5.395c0.256,0.188,0.467,0.793,0.357,1.066c-1.604,3.994-3.268,7.966-4.946,12.016
		c-1.093-1.275-2.098-2.493-3.15-3.668c-3.142-3.506-6.999-5.998-11.262-7.922c-6.229-2.811-12.762-4.007-19.571-3.703
		c-12.449,0.556-23.248,4.998-32.004,13.951c-7.164,7.326-11.298,16.254-13.1,26.271c-2.061,11.452-0.984,22.62,3.844,33.241
		c6.512,14.327,17.449,23.538,32.893,26.901c10.799,2.353,21.355,1.261,31.334-3.785c5.232-2.646,9.428-6.508,12.826-11.262
		c0.285-0.399,0.616-0.768,0.926-1.149c0.106,0.045,0.213,0.09,0.32,0.135c-0.072,0.335-0.096,0.689-0.225,1.001
		c-2.736,6.635-5.477,13.269-8.254,19.886c-0.179,0.427-0.601,0.85-1.018,1.062c-6.334,3.228-13.059,5.053-20.146,5.587
		c-8.527,0.642-16.9-0.151-25.062-2.751c-8.091-2.577-15.393-6.595-21.661-12.362c-11.391-10.481-17.345-23.641-18.992-38.891
		c-0.098-0.902-0.186-1.806-0.277-2.708C138.521,401.823,138.521,398.863,138.521,395.903z"/>
	<linearGradient id="SVGID_3_" gradientUnits="userSpaceOnUse" x1="892.3213" y1="342.0576" x2="892.3213" y2="458.772">
		<stop  offset="0.0013" style="stop-color:#2E3192;stop-opacity:0.8"/>
		<stop  offset="0.9989" style="stop-color:#1B1464"/>
	</linearGradient>
	<path fill-rule="evenodd" clip-rule="evenodd" fill="url(#SVGID_3_)" d="M927.914,441.251c0-33.013,0-66.025,0-99.099
		c4.024,0,7.92,0,11.878,0c0,38.86,0,77.645,0,116.531c-0.34,0.024-0.684,0.07-1.027,0.07c-4.28,0.005-8.561-0.012-12.84,0.018
		c-0.708,0.005-1.146-0.181-1.562-0.799c-7.253-10.764-14.537-21.507-21.809-32.258c-11.121-16.44-22.236-32.886-33.359-49.325
		c-3.893-5.754-7.803-11.497-11.707-17.244c-0.151-0.224-0.316-0.438-0.717-0.615c0,33.342,0,66.684,0,100.126
		c-4.068,0-7.955,0-11.92,0c0-38.802,0-77.581,0-116.499c0.393-0.027,0.774-0.076,1.156-0.077c4.24-0.006,8.48,0.018,12.72-0.022
		c0.786-0.007,1.22,0.285,1.644,0.908c5.277,7.757,10.582,15.496,15.877,23.242c10.769,15.757,21.537,31.514,32.303,47.271
		c6.127,8.967,12.248,17.937,18.375,26.903c0.22,0.322,0.463,0.629,0.694,0.943C927.718,441.301,927.815,441.276,927.914,441.251z"
		/>
	<linearGradient id="SVGID_4_" gradientUnits="userSpaceOnUse" x1="383.877" y1="342.0542" x2="383.877" y2="458.7612">
		<stop  offset="0.0013" style="stop-color:#2E3192;stop-opacity:0.8"/>
		<stop  offset="0.9989" style="stop-color:#1B1464"/>
	</linearGradient>
	<path fill-rule="evenodd" clip-rule="evenodd" fill="url(#SVGID_4_)" d="M439.929,458.757c-4.303,0-8.42,0.021-12.538-0.036
		c-0.365-0.006-0.903-0.443-1.06-0.809c-2.826-6.642-5.607-13.303-8.398-19.961c-1.279-3.053-2.597-6.09-3.81-9.168
		c-0.333-0.848-0.895-0.746-1.521-0.746c-14.078,0-28.156,0-42.234,0c-0.477,0-0.953,0-1.605,0c0.805-2.037,1.566-3.955,2.32-5.876
		c0.495-1.262,1.02-2.515,1.457-3.798c0.297-0.876,0.757-1.196,1.734-1.193c11.158,0.042,22.316,0.026,33.475,0.026
		c0.463,0,0.924,0,1.568,0c-8.59-20.785-17.093-41.358-25.684-62.146c-14.35,34.656-28.625,69.13-42.918,103.65
		c-4.236,0-8.467,0-12.891,0c0.453-1.104,0.867-2.151,1.312-3.186c8.246-19.069,16.498-38.137,24.744-57.206
		c6.456-14.933,12.906-29.867,19.358-44.802c1.503-3.479,3.019-6.951,4.489-10.443c0.301-0.716,0.662-1.022,1.486-1.009
		c3.199,0.055,6.4,0.055,9.599,0c0.831-0.014,1.179,0.305,1.483,1.02c7.09,16.573,14.197,33.139,21.31,49.703
		c8.919,20.771,17.845,41.541,26.767,62.312C438.874,456.254,439.364,457.425,439.929,458.757z"/>
	<linearGradient id="SVGID_5_" gradientUnits="userSpaceOnUse" x1="560.9404" y1="341.9839" x2="560.9404" y2="458.7778">
		<stop  offset="0.0013" style="stop-color:#2E3192;stop-opacity:0.8"/>
		<stop  offset="0.9989" style="stop-color:#1B1464"/>
	</linearGradient>
	<path fill-rule="evenodd" clip-rule="evenodd" fill="url(#SVGID_5_)" d="M524.202,351.929c0.889-2.257,1.751-4.479,2.639-6.69
		c0.414-1.03,0.613-2.43,1.389-2.952c0.782-0.527,2.156-0.204,3.271-0.205c8.318-0.009,16.639-0.124,24.955,0.031
		c7.381,0.138,14.639,1.191,21.393,4.44c8.908,4.284,13.946,11.393,15.197,21.177c0.67,5.243,0.566,10.467-1.293,15.475
		c-3.689,9.931-10.989,15.896-21.053,18.654c-2.03,0.556-4.14,0.823-6.212,1.229c-0.226,0.045-0.444,0.124-0.82,0.23
		c11.353,18.483,22.638,36.857,34.011,55.375c-0.484,0.026-0.82,0.062-1.156,0.062c-4.079,0.003-8.158-0.022-12.237,0.022
		c-0.854,0.01-1.325-0.225-1.778-0.993c-8.92-15.122-17.877-30.222-26.827-45.325c-1.444-2.438-2.937-4.849-4.306-7.327
		c-0.469-0.847-1.027-1.024-1.904-1.019c-4.879,0.035-9.758,0.018-14.638,0.018c-0.472,0-0.945,0-1.612,0
		c0.975-2.501,1.871-4.833,2.791-7.156c1.211-3.061,1.219-3.059,4.495-3.059c4.438,0,8.881,0.097,13.317-0.023
		c5.773-0.157,11.455-0.926,16.766-3.415c6.505-3.049,10.225-8.045,10.769-15.31c0.412-5.494-0.542-10.581-4.261-14.865
		c-3.139-3.613-7.254-5.65-11.83-6.555c-3.815-0.754-7.724-1.268-11.606-1.396c-6.672-0.222-13.356-0.024-20.034-0.077
		C530.523,352.25,527.423,352.053,524.202,351.929z"/>
	<linearGradient id="SVGID_6_" gradientUnits="userSpaceOnUse" x1="715.2773" y1="390.9971" x2="715.2773" y2="458.6929">
		<stop  offset="0.0013" style="stop-color:#2E3192;stop-opacity:0.8"/>
		<stop  offset="0.9989" style="stop-color:#1B1464"/>
	</linearGradient>
	<path fill-rule="evenodd" clip-rule="evenodd" fill="url(#SVGID_6_)" d="M721.144,458.692c-3.938,0-7.762,0-11.73,0
		c0-0.571,0-1.079,0-1.587c0-11.677-0.016-23.353,0.026-35.029c0.003-1.044,0.22-2.146,0.599-3.12
		c3.561-9.139,7.178-18.255,10.781-27.376c0.055-0.14,0.146-0.265,0.324-0.583C721.144,413.673,721.144,436.143,721.144,458.692z"/>
	<linearGradient id="SVGID_7_" gradientUnits="userSpaceOnUse" x1="715.4238" y1="342.1816" x2="715.4238" y2="382.4053">
		<stop  offset="0.0013" style="stop-color:#2E3192;stop-opacity:0.8"/>
		<stop  offset="0.9989" style="stop-color:#1B1464"/>
	</linearGradient>
	<path fill-rule="evenodd" clip-rule="evenodd" fill="url(#SVGID_7_)" d="M709.487,382.359c0-13.357,0-26.715,0-40.178
		c3.879,0,7.727,0,11.66,0c0.023,0.356,0.061,0.704,0.063,1.052c0.009,0.999-0.082,2.007,0.017,2.997
		c0.562,5.627-0.707,10.818-3.076,15.941c-2.96,6.396-5.477,12.998-8.186,19.511c-0.102,0.244-0.219,0.481-0.328,0.723
		C709.587,382.39,709.537,382.375,709.487,382.359z"/>
</g>
</svg>
